:SAMPLES-PER-SECOND 30
:FULLY-SPECIFIED
:DEGREES
398
root  85.7076 38.4433 -0.333082 38.2412 83.9656 40.961
RightUpLeg  -13.5211 19.4757 -11.8055
RightLeg  26.364 7.71416 3.95472
RightFoot  -11.9364 -0.0321559 10.214
RightToes  -3.0268e-009 0 -3.6325e-017
Spine  6.91672 -0.480906 -5.15078
Spine1  4.39121 -0.59997 -1.53808
HEad  -25.4901 4.23467 -5.44655
LeftShoulder1  -0.84209 5.55587 -34.843
LeftArm  2.88504 5.46428 -35.7676
LeftForeArm  24.9928 -34.6476 -6.292
LeftHand  -0.0433489 8.13148 0.030203
RightShoulder  -1.36322 -7.05627 31.8707
RightArm  6.66794 -18.1522 37.3795
RightForeArm  14.6498 11.0774 3.26715
RightHand  0.815738 5.17367 8.71349
LeftUpLeg  -8.0756 5.25989 -3.4975
LeftLeg  15.7475 -0.457015 -0.826039
LeftFoot  -3.64968 -0.163151 2.75863
LeftToes  2.52475e-009 -1.26109e-010 3.16044e-011
399
root  86.0513 38.5314 -0.0483585 76.3663 86.4399 78.4795
RightUpLeg  -12.6655 24.1061 -11.7536
RightLeg  20.0345 9.80932 3.69989
RightFoot  -11.708 -0.0548437 6.4971
RightToes  -3.0268e-009 0 -3.6325e-017
Spine  6.1537 -0.902764 -5.04986
Spine1  5.24624 -1.11415 -0.55931
HEad  -24.9414 2.81981 -5.3526
LeftShoulder1  -0.838017 5.53582 -35.0413
LeftArm  1.85359 5.20139 -36.34
LeftForeArm  27.1706 -36.6807 -6.70635
LeftHand  -0.0518639 8.01382 -0.318111
RightShoulder  -1.36551 -7.05689 31.9278
RightArm  8.05102 -17.191 38.6205
RightForeArm  15.4517 12.9278 3.62197
RightHand  0.858096 3.75874 10.4845
LeftUpLeg  -8.08387 4.825 -3.22088
LeftLeg  15.0945 -4.07773 -1.53184
LeftFoot  -3.27427 -0.203383 3.16742
LeftToes  2.52475e-009 -1.26109e-010 3.16044e-011
400
root  86.3163 38.5971 0.134808 119.893 85.739 121.566
RightUpLeg  -12.1982 25.2809 -11.5641
RightLeg  17.0121 12.6263 4.10116
RightFoot  -9.76905 -0.134155 4.74747
RightToes  -3.0268e-009 0 -3.6325e-017
Spine  5.97705 -0.869348 -3.15816
Spine1  5.68143 -0.675383 -1.79263
HEad  -23.8175 0.923929 -5.37798
LeftShoulder1  -0.855826 5.5632 -35.3516
LeftArm  1.03185 4.93161 -37.1162
LeftForeArm  28.6957 -38.1921 -7.03073
LeftHand  -0.0717928 7.84038 -1.09231
RightShoulder  -1.35158 -7.02022 31.9302
RightArm  10.4342 -16.174 40.1447
RightForeArm  15.142 15.6659 3.96315
RightHand  0.330952 2.90679 4.6456
LeftUpLeg  -7.90624 3.90138 -3.28579
LeftLeg  14.2334 -6.27265 -1.78381
LeftFoot  -3.07007 -0.165662 2.54424
LeftToes  2.52475e-009 -1.26109e-010 3.16044e-011
401
root  86.5177 38.6135 0.503527 148.57 82.7201 150.268
RightUpLeg  -11.5383 23.8765 -10.4375
RightLeg  18.7709 10.0679 3.60548
RightFoot  -9.17439 -0.105851 2.3493
RightToes  -3.0268e-009 0 -3.6325e-017
Spine  7.0663 -0.652599 -2.29548
Spine1  5.0608 -0.359484 -2.16498
HEad  -22.3611 -0.368033 -5.67722
LeftShoulder1  -0.833986 5.51164 -35.3325
LeftArm  3.68831 4.0267 -37.4817
LeftForeArm  25.2129 -37.7638 -7.12658
LeftHand  -0.0169204 7.02414 1.25129
RightShoulder  -1.34302 -6.99957 31.9114
RightArm  15.8021 -14.2045 41.2407
RightForeArm  10.6313 16.1351 4.98516
RightHand  -0.153188 3.66771 -2.32703
LeftUpLeg  -7.74918 2.55312 -3.25975
LeftLeg  14.0111 -8.95351 -1.96686
LeftFoot  -2.94518 -0.112729 1.78152
LeftToes  2.52475e-009 -1.26109e-010 3.16044e-011
402
root  86.6939 38.7071 0.851554 162.963 79.61 163.68
RightUpLeg  -11.2034 21.1696 -9.17171
RightLeg  17.9198 8.61039 2.86728
RightFoot  -7.59903 -0.0866668 1.06945
RightToes  -3.0268e-009 0 -3.6325e-017
Spine  6.37777 -0.443913 0.242491
Spine1  5.72652 0.214155 -3.09504
HEad  -23.6227 0.510683 -6.57475
LeftShoulder1  -0.824917 5.48307 -35.4715
LeftArm  3.67391 4.07285 -38.3057
LeftForeArm  25.7966 -38.4602 -7.29064
LeftHand  -0.0243451 6.93367 0.942432
RightShoulder  -1.32035 -6.95697 31.7276
RightArm  20.0919 -10.9621 41.9765
RightForeArm  9.33502 16.5975 5.4824
RightHand  -0.18891 4.14044 -2.48739
LeftUpLeg  -8.88031 1.00997 -2.37196
LeftLeg  13.8159 -11.0948 -2.05207
LeftFoot  -2.30666 -0.102906 1.47524
LeftToes  2.52475e-009 -1.26109e-010 3.16044e-011
403
root  86.8335 38.747 1.23621 171.135 75.1706 171.143
RightUpLeg  -10.6994 16.8265 -7.81122
RightLeg  17.3713 8.29604 2.30138
RightFoot  -6.86814 -0.0361019 -0.294351
RightToes  -3.0268e-009 0 -3.6325e-017
Spine  6.28679 -0.427693 3.01508
Spine1  5.73571 0.615765 -4.24441
HEad  -24.7865 2.86015 -7.9618
LeftShoulder1  -0.807932 5.43752 -35.5722
LeftArm  5.67854 3.06624 -38.6691
LeftForeArm  24.9038 -37.065 -6.94604
LeftHand  -0.0316193 6.98269 0.459449
RightShoulder  -1.29123 -6.90269 31.4822
RightArm  24.1923 -8.48865 42.2361
RightForeArm  9.53545 18.0955 5.30852
RightHand  -0.0419246 2.11412 -0.828104
LeftUpLeg  -10.1203 -1.37764 -1.4748
LeftLeg  13.9796 -13.2848 -2.39904
LeftFoot  -1.79495 -0.0996738 1.32631
LeftToes  2.52475e-009 -1.26109e-010 3.16044e-011
404
root  86.9882 38.7707 1.72111 175.118 69.4182 174.866
RightUpLeg  -9.81342 9.51239 -6.28009
RightLeg  17.4842 9.6206 2.02232
RightFoot  -6.79447 0.026972 -1.82325
RightToes  -3.0268e-009 0 -3.6325e-017
Spine  6.46087 -0.378994 4.04308
Spine1  5.88569 0.471176 -3.00946
HEad  -25.3032 5.29882 -9.86938
LeftShoulder1  -0.784237 5.38859 -35.4065
LeftArm  5.84703 3.49969 -39.5988
LeftForeArm  25.629 -36.823 -6.83796
LeftHand  -0.0202014 6.87985 1.2125
RightShoulder  -1.31043 -6.9643 31.3653
RightArm  28.2868 -6.32 41.1511
RightForeArm  6.58277 20.2949 5.04252
RightHand  -0.107401 3.60007 -1.63411
LeftUpLeg  -10.9844 -4.70368 -0.518166
LeftLeg  13.882 -15.5868 -2.97884
LeftFoot  -1.44619 -0.039278 0.554247
LeftToes  2.52475e-009 -1.26109e-010 3.16044e-011
405
root  87.0918 38.7884 2.12239 177.196 64.4763 177.215
RightUpLeg  -8.89055 1.81221 -5.02712
RightLeg  17.7242 12.1249 2.49693
RightFoot  -6.65301 0.133344 -4.3625
RightToes  -3.0268e-009 0 -3.6325e-017
Spine  7.52747 -0.0494582 7.05564
Spine1  5.5209 1.20196 -3.89102
HEad  -24.8051 7.39108 -11.792
LeftShoulder1  -0.768922 5.35011 -35.4425
LeftArm  7.42485 3.16541 -40.0995
LeftForeArm  25.3357 -35.2266 -6.42325
LeftHand  -0.0172459 7.66866 1.16238
RightShoulder  -1.29015 -6.92206 31.2358
RightArm  27.8196 -5.64787 39.3637
RightForeArm  7.79557 23.5047 4.58308
RightHand  -0.0600923 3.28008 -0.989508
LeftUpLeg  -11.3738 -8.10157 0.487937
LeftLeg  13.7245 -17.3806 -3.27173
LeftFoot  -1.2527 0.0310649 -0.267781
LeftToes  2.52475e-009 -1.26109e-010 3.16044e-011
406
root  87.1756 38.7963 2.5379 178.011 59.6765 177.998
RightUpLeg  -8.35102 -3.16381 -4.60458
RightLeg  17.7008 12.3018 2.80808
RightFoot  -6.77102 0.170694 -5.41238
RightToes  -3.0268e-009 0 -3.6325e-017
Spine  8.51443 0.299853 9.02689
Spine1  4.67122 1.84478 -4.53154
HEad  -23.1501 9.809 -13.6339
LeftShoulder1  -0.801145 5.42282 -35.5408
LeftArm  8.28734 3.80884 -40.008
LeftForeArm  25.8123 -34.1929 -6.12447
LeftHand  -0.0155234 8.69468 1.10073
RightShoulder  -1.22942 -6.78262 30.9858
RightArm  28.0579 -4.57894 37.424
RightForeArm  6.5983 24.9341 4.99161
RightHand  -0.224482 4.00454 -3.06015
LeftUpLeg  -11.8572 -10.6294 0.902856
LeftLeg  13.0941 -18.7507 -3.06997
LeftFoot  -1.1485 0.124762 -1.31001
LeftToes  2.52475e-009 -1.26109e-010 3.16044e-011
407
root  87.3758 38.8363 3.03442 178.434 53.5866 177.94
RightUpLeg  -7.87504 -6.46816 -4.32919
RightLeg  17.3984 9.62095 2.19349
RightFoot  -6.98953 0.171374 -5.75215
RightToes  -3.0268e-009 0 -3.6325e-017
Spine  8.49871 0.456178 9.03849
Spine1  4.36886 1.8159 -3.7284
HEad  -21.3673 11.6445 -14.7389
LeftShoulder1  -0.794234 5.40683 -35.5279
LeftArm  14.8703 3.77229 -37.4473
LeftForeArm  19.9846 -34.1257 -6.44953
LeftHand  0.0126253 10.0992 1.35481
RightShoulder  -1.20414 -6.73042 30.7942
RightArm  26.8568 -4.12251 36.1619
RightForeArm  7.75966 25.4701 5.05443
RightHand  -0.198353 3.68045 -2.7897
LeftUpLeg  -12.6565 -10.721 0.699807
LeftLeg  11.8844 -19.6216 -2.51844
LeftFoot  -1.26888 0.265771 -2.98712
LeftToes  2.52475e-009 -1.26109e-010 3.16044e-011
408
root  87.6263 38.8978 3.50774 178.604 46.8224 177.661
RightUpLeg  -7.27553 -9.52106 -4.45205
RightLeg  17.2557 5.96851 1.85307
RightFoot  -7.12921 0.225849 -7.42957
RightToes  -3.0268e-009 0 -3.6325e-017
Spine  8.07538 0.430954 8.07229
Spine1  4.64982 1.32661 -1.95175
HEad  -18.2004 12.6699 -14.7762
LeftShoulder1  -0.804854 5.42763 -35.622
LeftArm  24.7311 2.17746 -34.4414
LeftForeArm  8.47906 -33.0506 -6.84517
LeftHand  0.0929383 10.6324 3.79681
RightShoulder  -1.13116 -6.57665 30.2853
RightArm  26.0671 -3.76705 35.6232
RightForeArm  5.99481 24.901 5.02143
RightHand  -0.25371 3.84773 -3.45368
LeftUpLeg  -12.9177 -7.92793 -0.122886
LeftLeg  9.86002 -18.8975 -1.53877
LeftFoot  -2.2363 0.468741 -5.68875
LeftToes  2.52475e-009 -1.26109e-010 3.16044e-011
409
root  87.8196 38.9723 3.87821 178.789 40.4118 177.243
RightUpLeg  -6.66909 -11.5127 -4.93969
RightLeg  16.7553 1.72013 1.63583
RightFoot  -7.07663 0.272364 -8.57375
RightToes  -3.0268e-009 0 -3.6325e-017
Spine  7.54286 0.389169 8.46473
Spine1  5.06077 1.36708 -2.32021
HEad  -16.2663 13.7142 -14.947
LeftShoulder1  -0.759788 5.33163 -35.3747
LeftArm  26.4201 1.35183 -34.3231
LeftForeArm  4.11349 -29.2009 -6.12256
LeftHand  -0.0157684 5.81162 5.59618
RightShoulder  -1.1719 -6.66947 30.483
RightArm  25.7809 -3.39348 34.7711
RightForeArm  5.33982 24.4797 4.96261
RightHand  -0.212781 3.96523 -2.91252
LeftUpLeg  -13.3156 -5.00364 -1.11784
LeftLeg  8.61477 -12.6553 -0.463346
LeftFoot  -2.33609 0.417128 -5.11062
LeftToes  2.52475e-009 -1.26109e-010 3.16044e-011
410
root  88.0524 39.0685 4.1987 179.015 34.5376 177.027
RightUpLeg  -5.75197 -12.7969 -5.27623
RightLeg  15.8908 -2.81808 1.48961
RightFoot  -6.80877 0.329408 -9.43904
RightToes  -3.0268e-009 0 -3.6325e-017
Spine  7.28952 0.561624 8.33992
Spine1  5.20165 1.4999 -2.16384
HEad  -14.4129 15.0052 -14.9281
LeftShoulder1  -0.742048 5.29317 -35.2066
LeftArm  3.89566 5.20752 -38.8525
LeftForeArm  25.7684 -26.5341 -4.32176
LeftHand  -0.077514 8.08568 -1.27652
RightShoulder  -1.08073 -6.47136 29.8632
RightArm  25.3721 -4.10551 35.2809
RightForeArm  4.98667 24.387 4.96069
RightHand  -0.315639 3.47626 -4.37613
LeftUpLeg  -13.2865 -1.38922 -1.89072
LeftLeg  7.72414 -5.30351 0.136052
LeftFoot  -2.74393 0.331059 -4.19725
LeftToes  2.52475e-009 -1.26109e-010 3.16044e-011
411
root  88.2385 39.1278 4.53113 179.523 28.5257 176.858
RightUpLeg  -5.5162 -13.4922 -5.40859
RightLeg  15.6389 -7.70497 1.06421
RightFoot  -6.52095 0.409571 -10.7478
RightToes  -3.0268e-009 0 -3.6325e-017
Spine  7.38356 0.694657 8.81283
Spine1  4.75263 1.90053 -3.22729
HEad  -13.4299 14.4725 -13.7357
LeftShoulder1  -0.613591 5.03874 -33.8183
LeftArm  -11.8976 7.48602 -42.1599
LeftForeArm  40.9086 -27.3006 -3.70888
LeftHand  -0.203839 8.77686 -5.2316
RightShoulder  -1.19459 -6.70355 30.8087
RightArm  25.195 -4.39341 35.0364
RightForeArm  6.04423 24.8908 5.01646
RightHand  -0.285564 3.44968 -3.99842
LeftUpLeg  -13.3157 1.68317 -2.39335
LeftLeg  6.80527 0.961252 -0.00257638
LeftFoot  -2.58278 0.241112 -2.93542
LeftToes  2.52475e-009 -1.26109e-010 3.16044e-011
412
root  88.5883 39.1525 4.76286 -179.881 21.7152 176.487
RightUpLeg  -5.28143 -14.0849 -5.60381
RightLeg  15.8376 -13.6959 0.47552
RightFoot  -6.59474 0.455345 -11.982
RightToes  -3.0268e-009 0 -3.6325e-017
Spine  6.0146 0.871803 6.63874
Spine1  5.52166 1.39156 -0.803328
HEad  -12.0476 14.5024 -13.6103
LeftShoulder1  -0.719011 5.2833 -34.2239
LeftArm  -3.03985 5.81386 -39.1694
LeftForeArm  29.2167 -24.5686 -3.7189
LeftHand  -0.0919895 8.47714 -1.43555
RightShoulder  -1.09276 -6.47394 30.2451
RightArm  24.7419 -4.95943 36.1159
RightForeArm  5.72566 25.5079 5.17084
RightHand  -0.23043 3.73739 -3.19011
LeftUpLeg  -13.193 4.21902 -2.73892
LeftLeg  6.0217 5.20522 -0.93436
LeftFoot  -2.98289 0.142956 -1.71699
LeftToes  2.52475e-009 -1.26109e-010 3.16044e-011
